<mxfile host="app.diagrams.net" modified="2021-04-27T10:41:32.193Z" agent="5.0 (Windows NT 10.0; Win64; x64) AppleWebKit/537.36 (KHTML, like Gecko) Chrome/90.0.4430.85 Safari/537.36" etag="Zr3igYfeQlShtH9EmtFV" version="14.6.6" type="github">
  <diagram name="Page-1" id="edf60f1a-56cd-e834-aa8a-f176f3a09ee4">
    <mxGraphModel dx="716" dy="400" grid="1" gridSize="10" guides="1" tooltips="1" connect="1" arrows="1" fold="1" page="1" pageScale="1" pageWidth="1100" pageHeight="850" background="#ffffff" math="0" shadow="0">
      <root>
        <mxCell id="0" />
        <mxCell id="1" parent="0" />
        <mxCell id="XolFNrf6K3DmmpxmU2WW-3" style="edgeStyle=orthogonalEdgeStyle;rounded=0;orthogonalLoop=1;jettySize=auto;html=1;exitX=0.5;exitY=1;exitDx=0;exitDy=0;" edge="1" parent="1" source="XolFNrf6K3DmmpxmU2WW-2">
          <mxGeometry relative="1" as="geometry">
            <mxPoint x="300.1428571428571" y="280" as="targetPoint" />
          </mxGeometry>
        </mxCell>
        <mxCell id="XolFNrf6K3DmmpxmU2WW-2" value="&lt;span style=&quot;color: rgb(74 , 79 , 85) ; font-family: &amp;#34;helvetica&amp;#34; , &amp;#34;arial&amp;#34; , sans-serif ; font-weight: 700 ; text-align: left ; background-color: rgb(255 , 255 , 255)&quot;&gt;&lt;font style=&quot;font-size: 14px&quot;&gt;PoolWithMultipleWinnersBuilder&lt;/font&gt;&lt;/span&gt;" style="rounded=0;whiteSpace=wrap;html=1;" vertex="1" parent="1">
          <mxGeometry x="180" y="60" width="240" height="80" as="geometry" />
        </mxCell>
        <mxCell id="XolFNrf6K3DmmpxmU2WW-4" value="&lt;span style=&quot;color: rgb(30, 32, 34); font-family: monospace; font-size: small; font-style: normal; font-weight: 400; letter-spacing: normal; text-align: left; text-indent: 0px; text-transform: none; word-spacing: 0px; background-color: rgb(248, 249, 250); display: inline; float: none;&quot;&gt;Function: createCompoundMultipleWinners&lt;/span&gt;" style="text;whiteSpace=wrap;html=1;" vertex="1" parent="1">
          <mxGeometry x="300" y="180" width="130" height="40" as="geometry" />
        </mxCell>
        <mxCell id="XolFNrf6K3DmmpxmU2WW-5" value="CompoundPrizePool.sol&lt;br&gt;Ticket.sol&lt;br&gt;MultipleWinners.sol" style="rounded=0;whiteSpace=wrap;html=1;dashed=1;align=left;" vertex="1" parent="1">
          <mxGeometry x="500" y="170" width="150" height="60" as="geometry" />
        </mxCell>
        <mxCell id="XolFNrf6K3DmmpxmU2WW-7" style="edgeStyle=orthogonalEdgeStyle;rounded=0;orthogonalLoop=1;jettySize=auto;html=1;" edge="1" parent="1" source="XolFNrf6K3DmmpxmU2WW-6">
          <mxGeometry relative="1" as="geometry">
            <mxPoint x="300" y="470" as="targetPoint" />
          </mxGeometry>
        </mxCell>
        <mxCell id="XolFNrf6K3DmmpxmU2WW-6" value="&lt;span style=&quot;color: rgb(74 , 79 , 85) ; font-family: &amp;#34;helvetica&amp;#34; , &amp;#34;arial&amp;#34; , sans-serif ; font-size: 14px ; font-weight: 700 ; text-align: left ; background-color: rgb(255 , 255 , 255)&quot;&gt;CompoundPrizePool&lt;/span&gt;" style="rounded=0;whiteSpace=wrap;html=1;" vertex="1" parent="1">
          <mxGeometry x="200" y="280" width="200" height="60" as="geometry" />
        </mxCell>
        <mxCell id="XolFNrf6K3DmmpxmU2WW-8" value="Function: depositTo" style="text;whiteSpace=wrap;html=1;" vertex="1" parent="1">
          <mxGeometry x="300" y="390" width="130" height="30" as="geometry" />
        </mxCell>
        <mxCell id="XolFNrf6K3DmmpxmU2WW-10" style="edgeStyle=orthogonalEdgeStyle;rounded=0;orthogonalLoop=1;jettySize=auto;html=1;exitX=0.5;exitY=1;exitDx=0;exitDy=0;entryX=0.5;entryY=0;entryDx=0;entryDy=0;" edge="1" parent="1" source="XolFNrf6K3DmmpxmU2WW-9" target="XolFNrf6K3DmmpxmU2WW-13">
          <mxGeometry relative="1" as="geometry">
            <mxPoint x="300.1428571428571" y="660" as="targetPoint" />
          </mxGeometry>
        </mxCell>
        <mxCell id="XolFNrf6K3DmmpxmU2WW-9" value="&lt;span style=&quot;color: rgb(74 , 79 , 85) ; font-family: &amp;#34;helvetica&amp;#34; , &amp;#34;arial&amp;#34; , sans-serif ; font-size: 14px ; font-weight: 700 ; text-align: left ; background-color: rgb(255 , 255 , 255)&quot;&gt;MultipleWinners&lt;/span&gt;" style="rounded=0;whiteSpace=wrap;html=1;" vertex="1" parent="1">
          <mxGeometry x="240" y="470" width="120" height="60" as="geometry" />
        </mxCell>
        <mxCell id="XolFNrf6K3DmmpxmU2WW-11" value="Function: startAward" style="text;whiteSpace=wrap;html=1;" vertex="1" parent="1">
          <mxGeometry x="300" y="560" width="140" height="30" as="geometry" />
        </mxCell>
        <mxCell id="XolFNrf6K3DmmpxmU2WW-12" value="Function: completeAward" style="text;whiteSpace=wrap;html=1;" vertex="1" parent="1">
          <mxGeometry x="300" y="660" width="160" height="30" as="geometry" />
        </mxCell>
        <mxCell id="XolFNrf6K3DmmpxmU2WW-14" style="edgeStyle=orthogonalEdgeStyle;rounded=0;orthogonalLoop=1;jettySize=auto;html=1;" edge="1" parent="1" source="XolFNrf6K3DmmpxmU2WW-13">
          <mxGeometry relative="1" as="geometry">
            <mxPoint x="300" y="840" as="targetPoint" />
            <Array as="points">
              <mxPoint x="300" y="820" />
              <mxPoint x="300" y="820" />
            </Array>
          </mxGeometry>
        </mxCell>
        <mxCell id="XolFNrf6K3DmmpxmU2WW-13" value="&lt;span style=&quot;color: rgb(74 , 79 , 85) ; font-family: &amp;#34;helvetica&amp;#34; , &amp;#34;arial&amp;#34; , sans-serif ; font-size: 14px ; font-weight: 700 ; text-align: left ; background-color: rgb(255 , 255 , 255)&quot;&gt;CompoundPrizePool&lt;/span&gt;" style="rounded=0;whiteSpace=wrap;html=1;" vertex="1" parent="1">
          <mxGeometry x="200" y="720" width="200" height="60" as="geometry" />
        </mxCell>
        <mxCell id="XolFNrf6K3DmmpxmU2WW-16" value="Function: withdrawInstantlyFrom" style="text;whiteSpace=wrap;html=1;" vertex="1" parent="1">
          <mxGeometry x="320" y="870" width="200" height="30" as="geometry" />
        </mxCell>
        <mxCell id="XolFNrf6K3DmmpxmU2WW-17" value="" style="rounded=0;whiteSpace=wrap;html=1;" vertex="1" parent="1">
          <mxGeometry x="240" y="970" width="120" height="60" as="geometry" />
        </mxCell>
        <mxCell id="XolFNrf6K3DmmpxmU2WW-20" value="0x00000&amp;nbsp; &amp;nbsp; &amp;nbsp; &amp;nbsp; &amp;nbsp; &amp;nbsp; &amp;nbsp; &amp;nbsp; &amp;nbsp; &amp;nbsp; &amp;nbsp; To&amp;nbsp; &amp;nbsp; &amp;nbsp; &amp;nbsp; &amp;nbsp; &amp;nbsp; &amp;nbsp; &amp;nbsp; &amp;nbsp; &amp;nbsp; &amp;nbsp; &amp;nbsp; &amp;nbsp; &amp;nbsp; &amp;nbsp; &amp;nbsp;user 100&amp;nbsp; BatTicket&lt;br&gt;user&amp;nbsp; &amp;nbsp; &amp;nbsp; &amp;nbsp; &amp;nbsp; &amp;nbsp; &amp;nbsp; &amp;nbsp; &amp;nbsp; &amp;nbsp; &amp;nbsp; &amp;nbsp; &amp;nbsp; &amp;nbsp; &amp;nbsp;To&amp;nbsp; &amp;nbsp; &amp;nbsp;&lt;span&gt;CompoundPrizePool 100&amp;nbsp; &amp;nbsp; &amp;nbsp; &amp;nbsp; &amp;nbsp; &amp;nbsp;Bat&lt;br&gt;&lt;/span&gt;&lt;span&gt;CompoundPrizePool&amp;nbsp; &amp;nbsp;To&amp;nbsp; &amp;nbsp; &amp;nbsp; &amp;nbsp; &amp;nbsp; &amp;nbsp; &amp;nbsp; &amp;nbsp; &amp;nbsp; &amp;nbsp; &amp;nbsp; &amp;nbsp; &amp;nbsp; CErc20 100&amp;nbsp; &amp;nbsp; &amp;nbsp; &amp;nbsp; &amp;nbsp; &amp;nbsp;Bat&lt;/span&gt;" style="text;html=1;align=left;verticalAlign=middle;resizable=0;points=[];autosize=1;strokeColor=#000000;rounded=1;" vertex="1" parent="1">
          <mxGeometry x="450" y="375" width="350" height="50" as="geometry" />
        </mxCell>
        <mxCell id="XolFNrf6K3DmmpxmU2WW-23" value="Create Bat pool with Compound Yield source" style="text;html=1;align=center;verticalAlign=middle;resizable=0;points=[];autosize=1;strokeColor=none;" vertex="1" parent="1">
          <mxGeometry x="170" y="20" width="250" height="20" as="geometry" />
        </mxCell>
        <mxCell id="XolFNrf6K3DmmpxmU2WW-24" value="RNGBlockHash" style="text;html=1;align=left;verticalAlign=middle;resizable=0;points=[];autosize=1;strokeColor=#000000;rounded=1;" vertex="1" parent="1">
          <mxGeometry x="440" y="565" width="100" height="20" as="geometry" />
        </mxCell>
        <mxCell id="XolFNrf6K3DmmpxmU2WW-25" value="RNGBlockHash" style="text;html=1;align=left;verticalAlign=middle;resizable=0;points=[];autosize=1;strokeColor=#000000;rounded=1;" vertex="1" parent="1">
          <mxGeometry x="460" y="660" width="100" height="20" as="geometry" />
        </mxCell>
      </root>
    </mxGraphModel>
  </diagram>
</mxfile>
